<?xml version="1.0" standalone="no"?>
<!DOCTYPE svg PUBLIC "-//W3C//DTD SVG 20010904//EN"
 "http://www.w3.org/TR/2001/REC-SVG-20010904/DTD/svg10.dtd">
<svg version="1.0" xmlns="http://www.w3.org/2000/svg"
 width="310.000000pt" height="310.000000pt" viewBox="0 0 310.000000 310.000000"
 preserveAspectRatio="xMidYMid meet">
<metadata>
Created by potrace 1.14, written by Peter Selinger 2001-2017
</metadata>
<g transform="translate(0.000000,310.000000) scale(0.100000,-0.100000)"
fill="#000000" stroke="none">
<path d="M12 2688 c-3 -42 -2 -226 1 -243 3 -11 8 -38 11 -60 16 -91 57 -183
114 -255 85 -109 187 -180 457 -320 375 -193 594 -361 720 -551 76 -113 99
-179 99 -284 1 -81 -2 -95 -28 -143 -104 -187 -313 -233 -494 -110 -44 31
-116 114 -127 148 -6 18 -15 19 -125 17 -136 -2 -129 7 -84 -94 82 -188 272
-352 443 -383 174 -32 902 -35 1076 -5 189 33 360 170 454 360 64 130 70 120
-67 122 l-117 2 -33 -54 c-93 -154 -294 -223 -444 -153 -108 50 -177 149 -186
269 -16 226 191 489 570 721 51 31 131 76 178 99 167 85 306 162 367 205 204
145 292 321 292 587 0 60 -3 116 -6 124 -3 8 -19 -19 -38 -64 -125 -304 -219
-405 -550 -588 -325 -181 -554 -361 -752 -592 -91 -106 -179 -295 -182 -390
-2 -39 -18 -25 -25 21 -7 43 -26 100 -61 181 -36 84 -111 183 -229 303 -191
195 -331 299 -643 478 -92 53 -191 112 -220 131 -135 89 -240 233 -328 448
-31 75 -41 93 -43 73z"/>
<path d="M55 2010 c17 -83 67 -220 102 -279 77 -129 192 -210 373 -260 198
-56 261 -77 330 -111 134 -67 248 -166 328 -287 19 -29 36 -53 38 -53 7 0 -48
137 -80 199 -102 197 -235 298 -559 425 -249 97 -372 182 -490 336 -47 62 -49
63 -42 30z"/>
<path d="M3016 1999 c-40 -59 -151 -168 -219 -212 -74 -49 -170 -97 -299 -147
-239 -95 -325 -143 -411 -234 -52 -56 -126 -161 -150 -216 -48 -109 -57 -130
-57 -141 0 -7 22 17 49 53 62 82 169 180 245 224 84 50 154 77 300 119 315 88
424 166 505 360 29 69 74 225 67 232 -2 2 -15 -15 -30 -38z"/>
<path d="M184 1510 c16 -57 82 -174 123 -216 76 -76 164 -107 343 -119 193
-13 335 -75 453 -200 l29 -30 -34 64 c-40 78 -116 163 -183 206 -68 43 -145
69 -311 104 -201 43 -281 80 -383 175 -39 37 -43 39 -37 16z"/>
<path d="M2861 1479 c-29 -28 -81 -64 -115 -81 -60 -30 -166 -71 -166 -63 0 2
-15 -1 -32 -6 -18 -5 -46 -12 -63 -15 -198 -35 -303 -82 -395 -177 -42 -44
-120 -160 -120 -179 0 -4 19 11 43 35 113 115 235 165 442 183 219 18 300 56
385 179 30 43 85 164 78 170 -2 2 -27 -19 -57 -46z"/>
<path d="M2705 1109 c-57 -39 -134 -58 -265 -64 -181 -9 -254 -39 -331 -136
-29 -37 -30 -41 -9 -26 14 10 50 30 80 45 53 26 61 27 225 28 178 1 201 5 252
48 30 25 99 124 92 130 -2 2 -22 -10 -44 -25z"/>
<path d="M367 1098 c31 -55 105 -123 148 -135 23 -7 73 -10 120 -7 94 5 170 5
206 0 35 -5 119 -42 141 -63 10 -9 21 -13 24 -10 4 3 -19 31 -49 61 -78 76
-135 95 -295 102 -131 5 -219 26 -273 65 -38 27 -43 24 -22 -13z"/>
</g>
</svg>
